<svg width="49" height="48" viewBox="0 0 49 48" fill="none" xmlns="http://www.w3.org/2000/svg">
<rect x="0.780457" width="48" height="48" rx="24" fill="white"/>
<path d="M17.3005 17.9339L14.1735 14.8079L15.5885 13.3929L35.3875 33.1929L33.9725 34.6069L30.6625 31.2969C28.9037 32.4125 26.8632 33.0033 24.7805 32.9999C19.3885 32.9999 14.9025 29.1199 13.9615 23.9999C14.3915 21.6707 15.5621 19.5428 17.3005 17.9339ZM27.5375 28.1719L26.0735 26.7079C25.5135 26.9759 24.8842 27.0635 24.2724 26.9587C23.6605 26.854 23.0963 26.562 22.6573 26.1231C22.2184 25.6841 21.9264 25.1199 21.8217 24.508C21.7169 23.8962 21.8045 23.2669 22.0725 22.7069L20.6085 21.2429C19.9722 22.2044 19.6877 23.3563 19.8033 24.5034C19.9188 25.6506 20.4273 26.7226 21.2426 27.5378C22.0578 28.3531 23.1298 28.8616 24.277 28.9771C25.4241 29.0927 26.576 28.8082 27.5375 28.1719ZM20.7545 15.7599C22.0015 15.2699 23.3605 14.9999 24.7805 14.9999C30.1725 14.9999 34.6585 18.8799 35.5995 23.9999C35.293 25.6656 34.6043 27.2375 33.5875 28.5919L29.7275 24.7319C29.8421 23.9596 29.7743 23.1711 29.5294 22.4296C29.2845 21.6881 28.8693 21.0144 28.3172 20.4622C27.765 19.9101 27.0913 19.4949 26.3498 19.25C25.6083 19.0051 24.8198 18.9373 24.0475 19.0519L20.7545 15.7599Z" fill="#434CE6"/>
</svg>
