<svg width="313" height="233" viewBox="0 0 313 233" fill="none" xmlns="http://www.w3.org/2000/svg">
<path d="M312.5 204.559H0.5V204.715H312.5V204.559Z" fill="#EBEBEB"/>
<path d="M53.9019 210.499H33.235V210.655H53.9019V210.499Z" fill="#EBEBEB"/>
<path d="M133.83 208.808H107.291V208.964H133.83V208.808Z" fill="#EBEBEB"/>
<path d="M70.7998 212.689H58.8253V212.845H70.7998V212.689Z" fill="#EBEBEB"/>
<path d="M281.238 215.248H271.734V215.404H281.238V215.248Z" fill="#EBEBEB"/>
<path d="M266.174 215.248H244.777V215.404H266.174V215.248Z" fill="#EBEBEB"/>
<path d="M207.562 210.755H192.692V210.911H207.562V210.755Z" fill="#EBEBEB"/>
<path d="M148.388 176.728H27.9061C26.9611 176.728 26.0548 176.353 25.3866 175.685C24.7184 175.017 24.343 174.11 24.343 173.165V3.79307C24.3513 2.85351 24.7303 1.95523 25.3976 1.29377C26.0649 0.6323 26.9665 0.261194 27.9061 0.26123H148.388C149.333 0.26123 150.239 0.636621 150.907 1.30482C151.576 1.97302 151.951 2.87929 151.951 3.82427V173.165C151.951 174.11 151.576 175.017 150.907 175.685C150.239 176.353 149.333 176.728 148.388 176.728ZM27.9061 0.386031C27.003 0.38768 26.1374 0.747164 25.4988 1.38575C24.8602 2.02434 24.5007 2.88997 24.499 3.79307V173.165C24.5007 174.068 24.8602 174.934 25.4988 175.573C26.1374 176.211 27.003 176.571 27.9061 176.572H148.388C149.291 176.571 150.157 176.211 150.795 175.573C151.434 174.934 151.793 174.068 151.795 173.165V3.79307C151.793 2.88997 151.434 2.02434 150.795 1.38575C150.157 0.747164 149.291 0.38768 148.388 0.386031H27.9061Z" fill="#EBEBEB"/>
<path d="M283.365 176.728H162.871C161.927 176.727 161.021 176.351 160.353 175.683C159.686 175.015 159.31 174.11 159.308 173.165V3.79307C159.318 2.85402 159.697 1.95669 160.364 1.29557C161.031 0.63445 161.932 0.262821 162.871 0.26123H283.365C284.303 0.264478 285.201 0.637034 285.866 1.29815C286.53 1.95926 286.908 2.85567 286.916 3.79307V173.165C286.916 174.108 286.542 175.013 285.877 175.68C285.211 176.348 284.308 176.725 283.365 176.728ZM162.871 0.386031C161.968 0.38768 161.102 0.747164 160.464 1.38575C159.825 2.02434 159.466 2.88997 159.464 3.79307V173.165C159.466 174.068 159.825 174.934 160.464 175.573C161.102 176.211 161.968 176.571 162.871 176.572H283.365C284.269 176.571 285.134 176.211 285.773 175.573C286.411 174.934 286.771 174.068 286.772 173.165V3.79307C286.771 2.88997 286.411 2.02434 285.773 1.38575C285.134 0.747164 284.269 0.38768 283.365 0.386031H162.871Z" fill="#EBEBEB"/>
<path d="M192.38 88.4761L259.691 88.4761V20.9842L192.38 20.9842V88.4761Z" fill="#F0F0F0"/>
<path d="M192.38 20.9905H191.219V88.4823H192.38V20.9905Z" fill="#E0E0E0"/>
<path d="M198.327 84.2141H253.75V25.2461L198.327 25.2461V84.2141Z" fill="#FAFAFA"/>
<path d="M220.148 71.3972H237.701C241.508 71.3972 244.053 68.3146 243.386 64.5332L239.972 44.9833C239.593 43.0917 238.585 41.3839 237.113 40.1378C235.64 38.8916 233.789 38.1802 231.86 38.1193H214.351C210.545 38.1193 207.999 41.2018 208.666 44.9833L212.08 64.5332C212.456 66.4182 213.457 68.1212 214.921 69.3668C216.386 70.6123 218.227 71.3277 220.148 71.3972Z" fill="#F0F0F0"/>
<path d="M66.0013 108.974H51.0253V201.358H66.0013V108.974Z" fill="#F0F0F0"/>
<path d="M131.715 201.364H52.5541V204.553H131.715V201.364Z" fill="#F0F0F0"/>
<path d="M66.0013 201.364H133.031V108.981L66.0013 108.981L66.0013 201.364Z" fill="#F5F5F5"/>
<path d="M68.697 173.577H130.336V157.079H68.697V173.577Z" fill="#F0F0F0"/>
<path d="M68.697 195.167H130.336V178.669H68.697V195.167Z" fill="#F0F0F0"/>
<path d="M123.041 156.068H75.9915C75.5848 156.068 75.2552 156.397 75.2552 156.804V157.597C75.2552 158.003 75.5848 158.333 75.9915 158.333H123.041C123.448 158.333 123.777 158.003 123.777 157.597V156.804C123.777 156.397 123.448 156.068 123.041 156.068Z" fill="#F5F5F5"/>
<path d="M123.041 177.664H75.9915C75.5848 177.664 75.2552 177.994 75.2552 178.401V179.193C75.2552 179.6 75.5848 179.929 75.9915 179.929H123.041C123.448 179.929 123.777 179.6 123.777 179.193V178.401C123.777 177.994 123.448 177.664 123.041 177.664Z" fill="#F5F5F5"/>
<path d="M68.697 130.565H130.336V114.066H68.697V130.565Z" fill="#F0F0F0"/>
<path d="M68.697 151.993H130.336V135.494H68.697V151.993Z" fill="#F0F0F0"/>
<path d="M123.041 113.062H75.9915C75.5848 113.062 75.2552 113.391 75.2552 113.798V114.59C75.2552 114.997 75.5848 115.327 75.9915 115.327H123.041C123.448 115.327 123.777 114.997 123.777 114.59V113.798C123.777 113.391 123.448 113.062 123.041 113.062Z" fill="#F5F5F5"/>
<path d="M123.041 134.477H75.9915C75.5848 134.477 75.2552 134.807 75.2552 135.214V136.006C75.2552 136.413 75.5848 136.743 75.9915 136.743H123.041C123.448 136.743 123.777 136.413 123.777 136.006V135.214C123.777 134.807 123.448 134.477 123.041 134.477Z" fill="#F5F5F5"/>
<path d="M130.604 15.8987H46.545V89.6929H130.604V15.8987Z" fill="#E6E6E6"/>
<path d="M139.615 13.0282H41.1037C40.9942 13.0282 40.8858 13.0499 40.7847 13.092C40.6836 13.1341 40.5918 13.1957 40.5146 13.2735C40.4375 13.3512 40.3765 13.4434 40.3352 13.5448C40.2938 13.6463 40.273 13.7549 40.2738 13.8644C40.2738 14.0845 40.3612 14.2956 40.5169 14.4512C40.6725 14.6068 40.8836 14.6943 41.1037 14.6943H139.615C139.835 14.6943 140.047 14.607 140.204 14.4516C140.36 14.2961 140.449 14.085 140.451 13.8644C140.451 13.6426 140.363 13.4299 140.206 13.2731C140.049 13.1163 139.836 13.0282 139.615 13.0282Z" fill="#E6E6E6"/>
<path d="M134.173 15.8987H48.2111V89.6929H134.173V15.8987Z" fill="#F0F0F0"/>
<path d="M130.604 89.6929H46.545V92.0578H133.063L130.604 89.6929Z" fill="#E6E6E6"/>
<path d="M140.114 89.6929H54.1577L56.6101 92.0578H142.572L140.114 89.6929Z" fill="#F0F0F0"/>
<path d="M129.181 84.7009V20.8906L53.2093 20.8906V84.7009H129.181Z" fill="#FAFAFA"/>
<path d="M70.4566 84.7009L99.7597 20.8906H113.6L84.2907 84.7009H70.4566Z" fill="white"/>
<path d="M87.261 84.7009L116.57 20.8906H121.962L92.6586 84.7009H87.261Z" fill="white"/>
<path d="M129.181 84.7009V20.8906H128.545V84.7009H129.181Z" fill="#E6E6E6"/>
<g opacity="0.4">
<path d="M53.2654 11.5369H44.6729V72.433H53.2654V11.5369Z" fill="#F0F0F0"/>
<path d="M56.6163 11.5369H49.9208V72.433H56.6163V11.5369Z" fill="#E6E6E6"/>
<path d="M61.8579 11.5369H53.2654V72.433H61.8579V11.5369Z" fill="#F0F0F0"/>
<path d="M65.2088 11.5369H58.5133V72.433H65.2088V11.5369Z" fill="#E6E6E6"/>
<path d="M70.4504 11.5369H61.8579V72.433H70.4504V11.5369Z" fill="#F0F0F0"/>
</g>
<g opacity="0.4">
<path d="M125.986 11.5369H121.032V72.433H125.986V11.5369Z" fill="#F0F0F0"/>
<path d="M127.908 11.5369H124.052V72.433H127.908V11.5369Z" fill="#E6E6E6"/>
<path d="M130.935 11.5369H125.98V72.433H130.935V11.5369Z" fill="#F0F0F0"/>
<path d="M132.863 11.5369H129.007V72.433H132.863V11.5369Z" fill="#E6E6E6"/>
<path d="M135.889 11.5369H130.935V72.433H135.889V11.5369Z" fill="#F0F0F0"/>
</g>
<path d="M223.174 133.928C223.101 134.831 223.297 135.735 223.737 136.527C224.177 137.318 224.842 137.961 225.648 138.374C226.454 138.788 227.364 138.953 228.264 138.85C229.163 138.746 230.012 138.378 230.703 137.792C231.393 137.206 231.895 136.429 232.143 135.558C232.392 134.687 232.377 133.762 232.1 132.9C231.824 132.038 231.297 131.277 230.588 130.713C229.879 130.15 229.019 129.81 228.116 129.735C226.905 129.637 225.705 130.023 224.778 130.809C223.851 131.595 223.275 132.717 223.174 133.928Z" fill="#E0E0E0"/>
<path d="M235.909 141.223C238.415 140.854 240.148 138.524 239.779 136.018C239.411 133.511 237.08 131.779 234.574 132.148C232.068 132.516 230.335 134.847 230.704 137.353C231.073 139.859 233.403 141.591 235.909 141.223Z" fill="#E0E0E0"/>
<path d="M238.693 137.26C238.62 138.163 238.816 139.067 239.256 139.859C239.696 140.65 240.361 141.293 241.167 141.707C241.973 142.12 242.883 142.286 243.783 142.182C244.682 142.078 245.531 141.71 246.222 141.124C246.912 140.538 247.414 139.761 247.662 138.89C247.911 138.019 247.896 137.094 247.619 136.232C247.343 135.37 246.816 134.609 246.107 134.045C245.398 133.482 244.538 133.142 243.635 133.067C243.035 133.017 242.431 133.085 241.858 133.269C241.284 133.453 240.753 133.748 240.293 134.137C239.834 134.527 239.457 135.003 239.182 135.539C238.907 136.075 238.741 136.66 238.693 137.26Z" fill="#E0E0E0"/>
<path d="M214.657 136.331C214.583 137.233 214.779 138.137 215.22 138.929C215.66 139.72 216.325 140.363 217.131 140.777C217.936 141.19 218.846 141.356 219.746 141.252C220.646 141.148 221.495 140.78 222.185 140.194C222.876 139.609 223.377 138.831 223.626 137.96C223.875 137.089 223.86 136.164 223.583 135.302C223.306 134.44 222.78 133.679 222.071 133.116C221.362 132.552 220.501 132.212 219.599 132.137C218.388 132.039 217.187 132.425 216.26 133.212C215.334 133.998 214.757 135.12 214.657 136.331Z" fill="#E0E0E0"/>
<path d="M250.548 141.219C253.054 140.851 254.787 138.52 254.418 136.014C254.05 133.508 251.719 131.776 249.213 132.144C246.707 132.513 244.975 134.844 245.343 137.35C245.712 139.856 248.042 141.588 250.548 141.219Z" fill="#E0E0E0"/>
<path d="M216.026 136.313C217.951 134.667 218.177 131.772 216.531 129.846C214.884 127.921 211.989 127.696 210.064 129.342C208.139 130.988 207.913 133.884 209.559 135.809C211.206 137.734 214.101 137.96 216.026 136.313Z" fill="#E0E0E0"/>
<path d="M202.002 135.289C201.929 136.191 202.124 137.095 202.565 137.887C203.005 138.678 203.67 139.321 204.476 139.735C205.282 140.148 206.192 140.314 207.091 140.21C207.991 140.106 208.84 139.738 209.53 139.152C210.221 138.566 210.722 137.789 210.971 136.918C211.22 136.047 211.205 135.122 210.928 134.26C210.651 133.398 210.125 132.637 209.416 132.074C208.707 131.51 207.847 131.17 206.944 131.095C205.733 130.997 204.532 131.383 203.606 132.169C202.679 132.956 202.102 134.077 202.002 135.289Z" fill="#E0E0E0"/>
<path d="M196.767 136.524C196.767 136.524 197.553 155.288 227.705 155.288C257.856 155.288 258.643 136.524 258.643 136.524H196.767Z" fill="#F0F0F0"/>
<path d="M275.846 155.288H270.112V204.553H275.846V155.288Z" fill="#E6E6E6"/>
<path d="M277.375 155.288H273.999V204.553H277.375V155.288Z" fill="#F0F0F0"/>
<path d="M251.448 155.288H245.713V204.553H251.448V155.288Z" fill="#E6E6E6"/>
<path d="M252.521 155.288H249.145V204.553H252.521V155.288Z" fill="#F0F0F0"/>
<path d="M197.016 161.266H278.423V155.294H197.016V161.266Z" fill="#F0F0F0"/>
<path d="M172.137 155.288H166.403V204.553H172.137V155.288Z" fill="#E6E6E6"/>
<path d="M173.211 155.288H169.835V204.553H173.211V155.288Z" fill="#F0F0F0"/>
<path d="M165.38 161.266H194.564V155.294H165.38V161.266Z" fill="#E6E6E6"/>
<path d="M196.53 155.288H190.795V204.553H196.53V155.288Z" fill="#E6E6E6"/>
<path d="M198.065 155.288H194.689V204.553H198.065V155.288Z" fill="#F0F0F0"/>
<path d="M156.5 232.739C223.319 232.739 277.487 229.576 277.487 225.675C277.487 221.774 223.319 218.611 156.5 218.611C89.6805 218.611 35.5126 221.774 35.5126 225.675C35.5126 229.576 89.6805 232.739 156.5 232.739Z" fill="#F5F5F5"/>
<path d="M222.32 219.479C222.32 220.726 221.879 221.933 221.073 222.884C220.267 223.836 219.15 224.471 217.92 224.677C202.781 227.231 187.321 227.231 172.181 224.677C170.956 224.466 169.846 223.828 169.046 222.877C168.247 221.925 167.81 220.722 167.813 219.479V168.935H222.344L222.32 219.479Z" fill="#407BFF"/>
<path opacity="0.3" d="M167.782 169.846V176.941C171.064 178.157 181.841 179.05 195.051 179.05C208.261 179.05 219.056 178.157 222.32 176.941V169.846H167.782Z" fill="black"/>
<path d="M223.343 175.256C223.343 176.859 210.963 178.157 195.051 178.157C179.139 178.157 166.759 176.859 166.759 175.256L166.241 168.953H223.892L223.343 175.256Z" fill="#407BFF"/>
<path d="M195.051 171.849C210.962 171.849 223.861 170.553 223.861 168.953C223.861 167.354 210.962 166.058 195.051 166.058C179.139 166.058 166.241 167.354 166.241 168.953C166.241 170.553 179.139 171.849 195.051 171.849Z" fill="#407BFF"/>
<path opacity="0.3" d="M195.051 171.849C210.962 171.849 223.861 170.553 223.861 168.953C223.861 167.354 210.962 166.058 195.051 166.058C179.139 166.058 166.241 167.354 166.241 168.953C166.241 170.553 179.139 171.849 195.051 171.849Z" fill="black"/>
<path opacity="0.2" d="M175.095 215.922C174.535 215.92 173.998 215.697 173.601 215.301C173.205 214.904 172.981 214.367 172.98 213.807V184.828C172.981 184.267 173.205 183.73 173.601 183.334C173.998 182.938 174.535 182.714 175.095 182.713C175.655 182.716 176.191 182.94 176.587 183.336C176.983 183.732 177.207 184.268 177.211 184.828V213.807C177.207 214.367 176.983 214.903 176.587 215.299C176.191 215.695 175.655 215.919 175.095 215.922Z" fill="black"/>
<path opacity="0.2" d="M215.012 215.922C214.452 215.92 213.915 215.697 213.519 215.301C213.122 214.904 212.899 214.367 212.897 213.807V184.828C212.899 184.267 213.122 183.73 213.519 183.334C213.915 182.938 214.452 182.714 215.012 182.713C215.572 182.716 216.109 182.94 216.505 183.336C216.901 183.732 217.125 184.268 217.128 184.828V213.807C217.125 214.367 216.901 214.903 216.505 215.299C216.109 215.695 215.572 215.919 215.012 215.922Z" fill="black"/>
<path opacity="0.2" d="M201.703 215.922C201.143 215.919 200.606 215.695 200.21 215.299C199.814 214.903 199.59 214.367 199.587 213.807V184.828C199.59 184.268 199.814 183.732 200.21 183.336C200.606 182.94 201.143 182.716 201.703 182.713C202.263 182.714 202.8 182.938 203.197 183.334C203.593 183.73 203.816 184.267 203.818 184.828V213.807C203.816 214.367 203.593 214.904 203.197 215.301C202.8 215.697 202.263 215.92 201.703 215.922Z" fill="black"/>
<path opacity="0.2" d="M188.399 215.922C187.839 215.919 187.303 215.695 186.907 215.299C186.511 214.903 186.287 214.367 186.284 213.807V184.828C186.287 184.268 186.511 183.732 186.907 183.336C187.303 182.94 187.839 182.716 188.399 182.713C188.959 182.714 189.497 182.938 189.893 183.334C190.289 183.73 190.513 184.267 190.514 184.828V213.807C190.513 214.367 190.289 214.904 189.893 215.301C189.497 215.697 188.959 215.92 188.399 215.922Z" fill="black"/>
<path d="M120.857 52.7771C120.857 53.3497 120.687 53.9095 120.369 54.3856C120.051 54.8618 119.599 55.2329 119.07 55.452C118.541 55.6712 117.959 55.7285 117.397 55.6168C116.835 55.5051 116.319 55.2293 115.914 54.8244C115.509 54.4195 115.234 53.9036 115.122 53.3419C115.01 52.7803 115.068 52.1981 115.287 51.6691C115.506 51.14 115.877 50.6878 116.353 50.3697C116.829 50.0515 117.389 49.8817 117.962 49.8817C118.73 49.8817 119.466 50.1868 120.009 50.7297C120.552 51.2727 120.857 52.0092 120.857 52.7771Z" fill="#263238"/>
<path d="M115.634 53.1952C115.606 53.196 115.578 53.1888 115.554 53.1744C115.53 53.1601 115.51 53.1392 115.497 53.1141C115.306 52.7625 115.185 52.3768 115.143 51.9788C115.101 51.5807 115.137 51.1783 115.251 50.7944C115.364 50.4106 115.552 50.0528 115.803 49.7414C116.055 49.4301 116.365 49.1714 116.717 48.9801C117.068 48.7887 117.454 48.6685 117.852 48.6263C118.25 48.584 118.653 48.6206 119.037 48.7339C119.42 48.8472 119.778 49.0349 120.089 49.2865C120.401 49.538 120.66 49.8485 120.851 50.2C120.869 50.2367 120.873 50.279 120.861 50.3184C120.85 50.3577 120.824 50.3912 120.788 50.4122C120.77 50.422 120.751 50.4283 120.73 50.4305C120.71 50.4327 120.689 50.4309 120.669 50.4251C120.65 50.4193 120.631 50.4096 120.615 50.3967C120.599 50.3838 120.586 50.3678 120.576 50.3498C120.23 49.7126 119.644 49.2393 118.948 49.0339C118.253 48.8285 117.504 48.9079 116.867 49.2546C116.229 49.6014 115.756 50.187 115.551 50.8827C115.345 51.5784 115.425 52.3272 115.771 52.9643C115.781 52.9824 115.788 53.0021 115.79 53.0226C115.792 53.043 115.79 53.0637 115.784 53.0834C115.779 53.1031 115.769 53.1215 115.756 53.1374C115.743 53.1534 115.727 53.1667 115.709 53.1765C115.686 53.1884 115.66 53.1948 115.634 53.1952Z" fill="#263238"/>
<path d="M112.82 66.0059C112.256 66.0036 111.704 65.845 111.224 65.5477C110.745 65.2505 110.357 64.8262 110.105 64.3219C109.852 63.8177 109.744 63.2533 109.792 62.6914C109.841 62.1294 110.044 61.592 110.38 61.1387C110.619 60.8182 110.919 60.548 111.263 60.3435C111.607 60.139 111.987 60.0042 112.383 59.9468C112.403 59.9433 112.424 59.9439 112.444 59.9487C112.464 59.9535 112.483 59.9623 112.499 59.9745C112.515 59.9868 112.529 60.0023 112.539 60.0201C112.549 60.0379 112.556 60.0575 112.558 60.0779C112.563 60.1184 112.553 60.1593 112.528 60.192C112.504 60.2247 112.467 60.2464 112.427 60.2526C111.709 60.3577 111.063 60.7435 110.63 61.3251C110.197 61.9067 110.013 62.6365 110.118 63.3539C110.223 64.0713 110.609 64.7176 111.191 65.1506C111.772 65.5836 112.502 65.7678 113.219 65.6627C113.261 65.6561 113.303 65.6661 113.337 65.6907C113.371 65.7153 113.394 65.7523 113.4 65.7937C113.407 65.8351 113.397 65.8774 113.372 65.9113C113.348 65.9453 113.311 65.9681 113.269 65.9747C113.12 65.9944 112.97 66.0048 112.82 66.0059Z" fill="#263238"/>
<path d="M128.551 70.7233C127.966 70.7225 127.393 70.5512 126.904 70.2304C126.869 70.2074 126.844 70.1718 126.835 70.1312C126.826 70.0905 126.832 70.0478 126.854 70.012C126.878 69.9782 126.914 69.9548 126.954 69.9467C126.995 69.9386 127.037 69.9463 127.072 69.9683C127.68 70.363 128.42 70.4999 129.13 70.349C129.839 70.198 130.459 69.7715 130.854 69.1633C131.248 68.5551 131.385 67.815 131.234 67.1059C131.083 66.3967 130.657 65.7766 130.049 65.3819C130.014 65.3589 129.989 65.3233 129.98 65.2827C129.971 65.242 129.977 65.1993 129.999 65.1635C130.023 65.1297 130.059 65.1064 130.099 65.0982C130.14 65.0901 130.182 65.0978 130.217 65.1198C130.894 65.5603 131.368 66.2508 131.536 67.0402C131.705 67.8296 131.553 68.6536 131.116 69.3318C130.9 69.6692 130.618 69.96 130.288 70.1872C129.958 70.4144 129.586 70.5733 129.194 70.6547C128.982 70.6991 128.767 70.7221 128.551 70.7233Z" fill="#263238"/>
<path d="M116.339 61.8064C118.6 61.8064 120.433 59.9737 120.433 57.713C120.433 55.4522 118.6 53.6195 116.339 53.6195C114.079 53.6195 112.246 55.4522 112.246 57.713C112.246 59.9737 114.079 61.8064 116.339 61.8064Z" fill="#263238"/>
<path d="M120.181 67.062C122.301 64.9419 122.301 61.5046 120.181 59.3845C118.061 57.2644 114.624 57.2644 112.504 59.3845C110.384 61.5046 110.384 64.9419 112.504 67.062C114.624 69.1821 118.061 69.1821 120.181 67.062Z" fill="#263238"/>
<path d="M116.913 76.1272C120.229 76.1272 122.916 73.4396 122.916 70.1243C122.916 66.809 120.229 64.1215 116.913 64.1215C113.598 64.1215 110.911 66.809 110.911 70.1243C110.911 73.4396 113.598 76.1272 116.913 76.1272Z" fill="#263238"/>
<path d="M128.761 71.9105C129.523 68.6838 127.525 65.4508 124.298 64.6892C121.071 63.9277 117.838 65.926 117.077 69.1526C116.315 72.3793 118.313 75.6124 121.54 76.3739C124.767 77.1355 128 75.1371 128.761 71.9105Z" fill="#263238"/>
<path d="M142.828 82.9164C142.828 83.4031 142.828 84.0208 142.872 84.5824C142.916 85.144 142.915 85.7431 142.953 86.3234C143.034 87.484 143.115 88.6572 143.24 89.824C143.465 92.1661 143.779 94.4978 144.182 96.8191C144.288 97.3932 144.382 97.9797 144.5 98.5538L144.775 99.9703C144.844 100.195 144.775 100.151 144.688 100.145C144.6 100.139 144.688 100.257 145.056 100.257C145.998 100.163 146.916 99.8986 147.764 99.4773C148.263 99.2527 148.775 99.0093 149.287 98.7472C149.798 98.4852 150.316 98.1856 150.784 97.9236L152.606 100.026C152.172 100.524 151.709 100.997 151.221 101.443C150.74 101.9 150.232 102.328 149.698 102.722C149.139 103.143 148.549 103.52 147.932 103.852C147.231 104.234 146.479 104.516 145.699 104.688C145.217 104.793 144.724 104.835 144.232 104.813C143.632 104.778 143.043 104.629 142.497 104.376C141.917 104.103 141.401 103.712 140.981 103.228C140.621 102.806 140.326 102.333 140.107 101.824C139.938 101.434 139.8 101.031 139.696 100.619L139.452 99.7082C139.278 99.0842 139.134 98.4914 138.984 97.8799C138.401 95.4268 137.951 92.9438 137.636 90.4418C137.48 89.1938 137.356 87.9458 137.281 86.6666C137.243 86.0426 137.212 85.4186 137.193 84.7572C137.175 84.0957 137.193 83.5092 137.193 82.7666L142.828 82.9164Z" fill="#FFB573"/>
<path d="M139.802 76.1896C145.124 80.2643 144.912 87.9458 144.912 87.9458L135.39 90.2234C135.39 90.2234 132.47 82.4983 133.655 79.6715C134.891 76.7263 136.807 73.8933 139.802 76.1896Z" fill="#407BFF"/>
<path opacity="0.7" d="M139.802 76.1896C145.124 80.2643 144.912 87.9458 144.912 87.9458L135.39 90.2234C135.39 90.2234 132.47 82.4983 133.655 79.6715C134.891 76.7263 136.807 73.8933 139.802 76.1896Z" fill="white"/>
<path d="M150.428 98.6411L152.001 95.9954L155.945 100.214C155.945 100.214 153.118 102.023 150.185 100.732L150.428 98.6411Z" fill="#FFB573"/>
<path d="M153.942 94.7286L159.002 97.7114L155.945 100.214L152.001 95.9954L153.942 94.7286Z" fill="#FFB573"/>
<path d="M110.006 221.07L115.447 221.594L118.829 208.846L113.382 208.322L110.006 221.07Z" fill="#FFB573"/>
<path d="M82.1129 210.356L86.9989 212.914L92.8083 201.395L87.9224 198.837L82.1129 210.356Z" fill="#FFB573"/>
<path d="M88.303 210.674L83.935 206.237C83.8624 206.16 83.7636 206.111 83.6576 206.102C83.5516 206.093 83.4459 206.123 83.3609 206.187L79.3486 209.139C79.2513 209.217 79.1715 209.315 79.1144 209.426C79.0573 209.537 79.0242 209.659 79.0171 209.784C79.0101 209.908 79.0293 210.033 79.0735 210.15C79.1177 210.267 79.1859 210.373 79.2737 210.462C80.8213 211.984 81.6449 212.64 83.5669 214.593C84.7525 215.791 87.1861 218.618 88.8209 220.277C90.4558 221.937 92.1781 220.408 91.6477 219.572C89.264 215.828 88.8646 213.476 88.7149 211.573C88.6878 211.234 88.5419 210.916 88.303 210.674Z" fill="#263238"/>
<path d="M116.296 219.941H109.7C109.582 219.942 109.468 219.981 109.374 220.053C109.281 220.126 109.213 220.226 109.182 220.34L107.772 225.525C107.737 225.649 107.731 225.778 107.755 225.904C107.779 226.03 107.832 226.148 107.911 226.25C107.989 226.351 108.09 226.433 108.206 226.488C108.322 226.543 108.449 226.57 108.577 226.567C110.892 226.567 111.99 226.567 114.879 226.567H123.721C126.124 226.567 126.629 224.14 125.631 223.915C121.175 222.929 118.604 221.569 117.232 220.271C116.972 220.049 116.638 219.931 116.296 219.941Z" fill="#263238"/>
<path opacity="0.2" d="M118.823 208.852L117.082 215.423H111.497L113.375 208.328L118.823 208.852Z" fill="black"/>
<path opacity="0.2" d="M87.9161 198.837L92.8083 201.402L89.8131 207.336L84.9209 204.771L87.9161 198.837Z" fill="black"/>
<path d="M138.192 75.4033C138.192 75.4033 140.6 76.4579 132.526 108.407L110.099 106.466C111.266 97.3743 111.759 91.7459 109.02 72.6327C112.217 72.2583 115.437 72.1145 118.654 72.2022C122.066 72.2538 125.469 72.5478 128.838 73.082C131.993 73.6973 135.115 74.472 138.192 75.4033Z" fill="#407BFF"/>
<path opacity="0.7" d="M138.192 75.4033C138.192 75.4033 140.6 76.4579 132.526 108.407L110.099 106.466C111.266 97.3743 111.759 91.7459 109.02 72.6327C112.217 72.2583 115.437 72.1145 118.654 72.2022C122.066 72.2538 125.469 72.5478 128.838 73.082C131.993 73.6973 135.115 74.472 138.192 75.4033Z" fill="white"/>
<path d="M118.654 72.0212C118.654 72.0212 117.406 72.0212 115.878 72.0212C114.973 73.4128 118.792 77.475 123.646 81.4686C124.82 77.8307 126.667 77.8432 126.667 77.8432L118.654 72.0212Z" fill="white"/>
<path d="M128.832 73.001C128.832 73.001 129.4 73.0821 130.76 73.3941C131.659 74.7856 132.164 78.2675 129.512 81.3002C128.47 77.5562 126.673 77.8931 126.673 77.8931L128.832 73.001Z" fill="white"/>
<path d="M120.651 60.8204C121.013 64.1526 121.132 70.1804 118.654 72.2022C118.654 72.2022 121.3 74.9104 126.667 77.8931C130.56 75.1974 128.838 73.082 128.838 73.082C125.256 71.8964 125.587 69.1945 126.442 66.6985L120.651 60.8204Z" fill="#FFB573"/>
<path opacity="0.2" d="M123.016 63.2229L126.442 66.6986C126.232 67.2762 126.073 67.8714 125.968 68.477C124.595 68.1587 122.598 66.7235 122.573 65.2509C122.597 64.5537 122.747 63.8666 123.016 63.2229Z" fill="black"/>
<path d="M133.518 49.9503C135.814 51.9846 136.488 56.9391 134.304 60.3025C133.649 56.893 133.385 53.4197 133.518 49.9503Z" fill="#263238"/>
<path d="M119.952 53.8254C119.553 59.3103 119.272 61.6254 121.643 64.789C125.213 69.5502 132.039 68.8326 134.067 63.5785C135.896 58.8423 136.239 50.6679 131.203 47.785C130.096 47.1391 128.843 46.7879 127.562 46.7651C126.281 46.7423 125.015 47.0485 123.886 47.6546C122.757 48.2607 121.803 49.1463 121.114 50.2267C120.425 51.3071 120.025 52.5462 119.952 53.8254Z" fill="#FFB573"/>
<path d="M119.222 58.2433C123.278 58.0873 125.525 52.7833 124.508 50.5432C129.106 52.9393 136.07 54.8238 135.296 51.7412C134.254 47.5792 129.219 44.5278 123.022 46.7492C119.434 48.3092 116.364 51.7412 119.222 58.2433Z" fill="#263238"/>
<path d="M117.987 58.2371C118.16 59.2859 118.738 60.2248 119.597 60.8516C120.745 61.6691 121.793 60.758 121.874 59.4289C121.949 58.2246 121.444 56.3526 120.096 56.0656C119.801 56.0069 119.496 56.0231 119.208 56.1126C118.921 56.2021 118.661 56.3621 118.451 56.5779C118.241 56.7938 118.089 57.0587 118.008 57.3485C117.927 57.6383 117.92 57.9438 117.987 58.2371Z" fill="#FFB573"/>
<path d="M132.526 108.407C132.526 108.407 137.599 141.51 134.772 162.776C132.632 178.844 118.823 213.513 118.823 213.513L109.856 213.27C109.856 213.27 119.116 179.667 121.032 166.47C124.308 143.869 116.102 107.009 116.102 107.009L132.526 108.407Z" fill="#263238"/>
<path opacity="0.2" d="M123.777 115.19L118.991 122.734C120.433 131.679 121.347 140.701 121.731 149.753C128.457 137.71 125.3 121.561 123.777 115.19Z" fill="black"/>
<path d="M120.221 214.012L108.951 213.707L109.638 210.081L121.281 210.15L120.221 214.012Z" fill="#407BFF"/>
<path d="M127.621 108.051C127.621 108.051 123.877 144.705 115.322 164.648C108.402 180.747 91.9035 206.499 91.9035 206.499L85.3141 202.643C85.3141 202.643 95.9221 174.008 101.157 163.275C113.931 136.961 102.05 115.851 110.099 106.491L127.621 108.051Z" fill="#263238"/>
<path d="M92.6211 207.061L84.2158 202.45L85.5824 198.855L94.5368 203.91L92.6211 207.061Z" fill="#407BFF"/>
<path d="M109.875 105.125L108.689 107.046C108.602 107.19 108.77 107.371 109.032 107.39L132.551 109.424C132.751 109.424 132.931 109.355 132.95 109.23L133.331 107.24C133.331 107.103 133.187 106.972 132.969 106.953L110.255 104.987C110.185 104.977 110.114 104.984 110.048 105.008C109.981 105.032 109.922 105.072 109.875 105.125Z" fill="#407BFF"/>
<path d="M112.708 107.926L112.084 107.876C111.965 107.876 111.878 107.795 111.89 107.72L112.402 105.137C112.402 105.056 112.533 105.006 112.651 105.018L113.275 105.068C113.4 105.068 113.488 105.149 113.469 105.224L112.963 107.808C112.939 107.883 112.82 107.939 112.708 107.926Z" fill="#263238"/>
<path d="M130.822 109.492L130.198 109.443C130.074 109.443 129.986 109.361 130.005 109.287L130.517 106.703C130.517 106.628 130.641 106.572 130.76 106.585L131.384 106.635C131.503 106.635 131.59 106.716 131.577 106.791L131.066 109.374C131.053 109.461 130.916 109.505 130.822 109.492Z" fill="#263238"/>
<path d="M121.762 108.712L121.138 108.656C121.019 108.656 120.932 108.575 120.944 108.5L121.456 105.917C121.456 105.842 121.581 105.786 121.706 105.798L122.33 105.855C122.448 105.855 122.536 105.936 122.523 106.011L122.011 108.594C121.999 108.669 121.887 108.719 121.762 108.712Z" fill="#263238"/>
<path d="M128.545 56.5522C128.482 56.9953 128.67 57.3884 128.957 57.4258C129.244 57.4633 129.531 57.1388 129.581 56.6958C129.631 56.2527 129.45 55.8596 129.163 55.8222C128.876 55.7847 128.601 56.1092 128.545 56.5522Z" fill="#263238"/>
<path d="M133.549 57.2262C133.493 57.6692 133.68 58.0623 133.967 58.0998C134.254 58.1372 134.541 57.8127 134.591 57.3697C134.641 56.9267 134.467 56.5335 134.18 56.4961C133.892 56.4587 133.612 56.7831 133.549 57.2262Z" fill="#263238"/>
<path d="M134.036 56.5023L135.147 56.3401C135.147 56.3401 134.498 57.0951 134.036 56.5023Z" fill="#263238"/>
<path d="M131.584 57.7129C131.844 58.7754 132.247 59.7977 132.782 60.7518C132.535 60.883 132.262 60.9588 131.983 60.9739C131.704 60.989 131.425 60.943 131.166 60.8391L131.584 57.7129Z" fill="#ED893E"/>
<path d="M128.57 62.1621C127.692 61.876 126.956 61.2671 126.511 60.4585C126.499 60.4327 126.498 60.4036 126.508 60.3771C126.517 60.3505 126.536 60.3283 126.56 60.315C126.587 60.302 126.618 60.2999 126.646 60.3092C126.674 60.3186 126.697 60.3386 126.71 60.3649C126.987 60.8511 127.376 61.265 127.843 61.5729C128.31 61.8808 128.844 62.0741 129.4 62.1371C129.428 62.1371 129.455 62.1483 129.475 62.1682C129.495 62.1881 129.506 62.215 129.506 62.2432C129.506 62.2713 129.495 62.2983 129.475 62.3182C129.455 62.3381 129.428 62.3493 129.4 62.3493C129.117 62.3181 128.839 62.2553 128.57 62.1621Z" fill="#263238"/>
<path d="M126.267 53.9876C126.231 53.9726 126.199 53.9491 126.174 53.919C126.153 53.8992 126.137 53.8754 126.125 53.8492C126.114 53.8229 126.109 53.7946 126.109 53.7661C126.109 53.7375 126.114 53.7093 126.125 53.683C126.137 53.6568 126.153 53.633 126.174 53.6132C126.479 53.3398 126.847 53.1447 127.245 53.0447C127.643 52.9447 128.059 52.9428 128.457 53.0391C128.485 53.047 128.51 53.0602 128.532 53.078C128.554 53.0959 128.572 53.118 128.586 53.143C128.599 53.168 128.607 53.1954 128.61 53.2237C128.613 53.2519 128.61 53.2804 128.601 53.3075C128.585 53.3627 128.548 53.4095 128.498 53.4375C128.447 53.4656 128.388 53.4726 128.333 53.4572C128.004 53.3842 127.663 53.3902 127.338 53.4748C127.012 53.5595 126.712 53.7202 126.461 53.9439C126.433 53.9648 126.402 53.9794 126.369 53.987C126.335 53.9945 126.301 53.9947 126.267 53.9876Z" fill="#263238"/>
<path d="M135.652 55.3168C135.62 55.3041 135.59 55.285 135.565 55.2606C135.346 55.0039 135.07 54.8023 134.759 54.6722C134.448 54.5421 134.11 54.4872 133.774 54.5118C133.745 54.5181 133.716 54.5183 133.687 54.5124C133.659 54.5065 133.632 54.4946 133.608 54.4775C133.585 54.4604 133.565 54.4385 133.551 54.4132C133.536 54.3879 133.527 54.3598 133.524 54.3308C133.515 54.2738 133.529 54.2154 133.563 54.1687C133.597 54.1219 133.648 54.0904 133.705 54.0812C134.113 54.0446 134.523 54.1059 134.902 54.26C135.281 54.4142 135.617 54.6567 135.883 54.9673C135.913 55.0034 135.931 55.0483 135.934 55.0953C135.937 55.1423 135.924 55.189 135.898 55.2283C135.872 55.2676 135.834 55.2974 135.79 55.3134C135.745 55.3293 135.697 55.3305 135.652 55.3168Z" fill="#263238"/>
<path d="M140.588 102.398C140.992 101.139 141.64 99.9722 142.495 98.9639C143.35 97.9557 144.395 97.1257 145.571 96.5213C146.746 95.9169 148.029 95.5501 149.347 95.4416C150.664 95.3332 151.99 95.4853 153.249 95.8893C154.508 96.2933 155.674 96.9412 156.683 97.7962C157.691 98.6511 158.521 99.6962 159.125 100.872C159.73 102.048 160.096 103.331 160.205 104.648C160.313 105.966 160.161 107.292 159.757 108.55L155.876 120.693L136.707 114.534L140.588 102.398Z" fill="#407BFF"/>
<path opacity="0.3" d="M140.588 102.398C140.992 101.139 141.64 99.9722 142.495 98.9639C143.35 97.9557 144.395 97.1257 145.571 96.5213C146.746 95.9169 148.029 95.5501 149.347 95.4416C150.664 95.3332 151.99 95.4853 153.249 95.8893C154.508 96.2933 155.674 96.9412 156.683 97.7962C157.691 98.6511 158.521 99.6962 159.125 100.872C159.73 102.048 160.096 103.331 160.205 104.648C160.313 105.966 160.161 107.292 159.757 108.55L155.876 120.693L136.707 114.534L140.588 102.398Z" fill="black"/>
<path d="M121.675 96.3198L118.168 107.24C118.116 107.397 118.097 107.562 118.11 107.727C118.123 107.891 118.168 108.052 118.244 108.198C118.319 108.345 118.423 108.476 118.549 108.582C118.675 108.689 118.821 108.769 118.979 108.818L136.7 114.509L140.594 102.391C141.411 99.8517 143.203 97.7403 145.576 96.5212C147.949 95.302 150.709 95.0747 153.249 95.8892L134.336 89.8114C131.793 88.9987 129.033 89.2275 126.659 90.4476C124.286 91.6677 122.493 93.7796 121.675 96.3198Z" fill="#407BFF"/>
<path d="M131.184 104.6L136.07 89.3934C136.087 89.3388 136.092 89.2812 136.085 89.2246C136.077 89.168 136.058 89.1136 136.028 89.0651C135.997 89.0166 135.957 88.9751 135.91 88.9435C135.862 88.9119 135.808 88.8908 135.752 88.8817L130.76 88.1454L130.136 90.1172L133.774 91.2841L129.656 104.101L131.184 104.6Z" fill="#263238"/>
<path d="M128.588 103.764C128.476 104.116 128.47 104.494 128.572 104.85C128.674 105.206 128.879 105.523 129.161 105.763C129.443 106.002 129.79 106.152 130.157 106.195C130.525 106.237 130.897 106.169 131.226 106C131.555 105.831 131.827 105.569 132.007 105.245C132.187 104.922 132.267 104.553 132.237 104.184C132.207 103.815 132.069 103.463 131.839 103.173C131.61 102.883 131.299 102.667 130.947 102.554C130.713 102.478 130.466 102.449 130.22 102.469C129.975 102.489 129.736 102.557 129.517 102.669C129.297 102.782 129.103 102.936 128.943 103.124C128.784 103.312 128.664 103.53 128.588 103.764Z" fill="#263238"/>
<path d="M137.624 116.325L162.21 124.219C162.299 124.248 162.393 124.259 162.487 124.252C162.58 124.244 162.672 124.218 162.755 124.175C162.839 124.132 162.913 124.073 162.973 124.001C163.034 123.93 163.08 123.847 163.108 123.757C163.138 123.668 163.15 123.573 163.143 123.48C163.136 123.386 163.11 123.294 163.067 123.21C163.024 123.127 162.964 123.052 162.892 122.992C162.82 122.931 162.736 122.886 162.646 122.858L136.7 114.528C136.585 114.889 136.617 115.281 136.79 115.618C136.963 115.955 137.263 116.209 137.624 116.325Z" fill="#407BFF"/>
<path opacity="0.2" d="M137.624 116.325L147.67 119.551C147.76 119.58 147.855 119.592 147.949 119.584C148.043 119.577 148.135 119.551 148.219 119.508C148.303 119.465 148.377 119.406 148.439 119.334C148.5 119.262 148.546 119.179 148.575 119.09C148.632 118.909 148.616 118.713 148.529 118.545C148.443 118.377 148.293 118.25 148.113 118.191L136.7 114.528C136.585 114.889 136.617 115.281 136.79 115.618C136.963 115.955 137.263 116.209 137.624 116.325Z" fill="black"/>
<path d="M111.659 81.4437L111.316 81.8243L110.929 82.2674C110.667 82.5669 110.405 82.8914 110.156 83.1971C109.644 83.8211 109.157 84.4888 108.702 85.1627C106.816 87.8315 105.332 90.7622 104.296 93.8613C104.047 94.635 103.816 95.4088 103.635 96.2013C103.572 96.4322 103.566 96.5258 103.535 96.6318C103.53 96.7233 103.53 96.8149 103.535 96.9064C103.525 97.0039 103.525 97.1022 103.535 97.1997C103.535 97.312 103.747 97.5741 104.259 97.8237C104.874 98.1004 105.522 98.2975 106.187 98.4102C107.792 98.6654 109.417 98.7719 111.042 98.7285C112.739 98.7285 114.461 98.5787 116.183 98.3978C117.906 98.2168 119.653 97.9922 121.344 97.7363L122.024 100.438C118.541 101.572 114.958 102.368 111.322 102.816C109.408 103.065 107.473 103.107 105.55 102.94C104.451 102.837 103.371 102.581 102.343 102.179C101.726 101.932 101.146 101.6 100.621 101.193C100.002 100.708 99.4914 100.098 99.1232 99.4024C98.4893 98.0982 98.3198 96.6166 98.6427 95.2029C98.7925 94.2482 99.0109 93.3309 99.2667 92.3699C99.7564 90.5253 100.408 88.7274 101.214 86.9973C102.021 85.2631 102.962 83.5941 104.028 82.0053C104.564 81.2128 105.139 80.4453 105.738 79.6902C106.043 79.3158 106.362 78.9477 106.674 78.5795L107.179 78.0366C107.36 77.8432 107.504 77.6872 107.753 77.4501L111.659 81.4437Z" fill="#FFB573"/>
<path d="M119.984 98.3104L124.352 95.9954L124.545 100.688C124.545 100.688 121.425 101.98 119.64 100.557L119.984 98.3104Z" fill="#FFB573"/>
<path d="M127.952 95.6396L127.297 99.964L124.551 100.688L124.358 95.9953L127.952 95.6396Z" fill="#FFB573"/>
<path d="M109.02 72.6452C106.268 73.132 102.418 81.0193 102.418 81.0193L109.351 87.2593C109.351 87.2593 114.86 81.244 114.567 77.6622C114.318 74.6358 112.52 72.0212 109.02 72.6452Z" fill="#407BFF"/>
<path opacity="0.7" d="M109.02 72.6452C106.268 73.132 102.418 81.0193 102.418 81.0193L109.351 87.2593C109.351 87.2593 114.86 81.244 114.567 77.6622C114.318 74.6358 112.52 72.0212 109.02 72.6452Z" fill="white"/>
<path d="M90.4496 213.083C90.3771 213.092 90.3037 213.092 90.2312 213.083C89.5386 213.045 88.8022 211.984 88.4216 211.36C88.4098 211.343 88.4035 211.322 88.4035 211.301C88.4035 211.28 88.4098 211.259 88.4216 211.242C88.433 211.223 88.4501 211.209 88.4704 211.201C88.4907 211.193 88.513 211.192 88.5339 211.198C88.7586 211.242 90.6992 211.679 90.9426 212.334C90.9678 212.405 90.9742 212.481 90.9611 212.556C90.948 212.63 90.9158 212.7 90.8677 212.758C90.7678 212.909 90.6209 213.023 90.4496 213.083ZM88.7461 211.498C89.3014 212.353 89.8506 212.864 90.2437 212.889C90.3332 212.891 90.4217 212.869 90.5004 212.827C90.5792 212.784 90.6455 212.722 90.693 212.646C90.7199 212.618 90.7383 212.584 90.7461 212.546C90.7538 212.509 90.7505 212.469 90.7366 212.434C90.5869 212.034 89.42 211.66 88.7461 211.498Z" fill="#407BFF"/>
<path d="M90.2499 211.361C89.6745 211.519 89.0707 211.544 88.484 211.435C88.4656 211.43 88.449 211.419 88.4359 211.405C88.4228 211.391 88.4135 211.373 88.4091 211.354C88.4004 211.338 88.3958 211.32 88.3958 211.301C88.3958 211.283 88.4004 211.265 88.4091 211.248C88.459 211.205 89.5947 210.094 90.3872 210.15C90.4851 210.151 90.5813 210.176 90.6681 210.221C90.7548 210.267 90.8296 210.332 90.8864 210.412C90.9545 210.485 90.9965 210.579 91.0055 210.678C91.0145 210.778 90.9902 210.877 90.9363 210.961C90.7571 211.166 90.5161 211.306 90.2499 211.361ZM88.7461 211.261C89.3701 211.348 90.5369 211.192 90.7803 210.836C90.8177 210.78 90.8489 210.693 90.7366 210.549C90.6989 210.495 90.6487 210.45 90.5901 210.418C90.5314 210.387 90.4662 210.37 90.3997 210.368C89.8568 210.331 89.0705 210.967 88.7461 211.261Z" fill="#407BFF"/>
<path d="M118.623 220.777C118.02 220.762 117.42 220.685 116.832 220.546C116.812 220.538 116.794 220.525 116.781 220.507C116.769 220.489 116.762 220.468 116.762 220.446C116.762 220.424 116.769 220.403 116.781 220.385C116.794 220.367 116.812 220.353 116.832 220.346C117.101 220.215 119.491 219.098 120.09 219.522C120.144 219.559 120.187 219.61 120.214 219.669C120.242 219.729 120.252 219.794 120.246 219.859C120.243 219.981 120.212 220.101 120.156 220.209C120.099 220.317 120.019 220.411 119.921 220.483C119.53 220.714 119.076 220.817 118.623 220.777ZM117.207 220.402C117.912 220.533 119.222 220.708 119.765 220.302C119.835 220.248 119.892 220.179 119.933 220.1C119.974 220.022 119.997 219.935 120.002 219.847C120.008 219.819 120.005 219.791 119.993 219.765C119.982 219.74 119.964 219.718 119.94 219.703C119.603 219.473 118.193 219.965 117.188 220.402H117.207Z" fill="#407BFF"/>
<path d="M116.851 220.533C116.829 220.539 116.805 220.539 116.782 220.533C116.767 220.519 116.756 220.501 116.75 220.482C116.743 220.462 116.741 220.441 116.745 220.421C116.745 220.321 117.313 217.969 118.617 218.118C118.941 218.162 119.029 218.318 119.048 218.449C119.129 219.073 117.625 220.253 116.907 220.552L116.851 220.533ZM118.486 218.306C117.662 218.306 117.182 219.678 117.02 220.228C117.8 219.816 118.892 218.836 118.823 218.455C118.823 218.424 118.823 218.337 118.58 218.312L118.486 218.306Z" fill="#407BFF"/>
<path d="M129.044 55.8285L130.148 55.6663C130.148 55.6663 129.493 56.4213 129.044 55.8285Z" fill="#263238"/>
<path d="M167.439 108.032L143.277 113.024C142.864 113.102 142.437 113.015 142.087 112.782C141.737 112.548 141.493 112.188 141.405 111.776L140.276 106.535L139.87 104.6L140.582 102.391C140.681 102.074 140.8 101.764 140.937 101.462C140.953 101.414 140.974 101.368 141 101.324C141.398 100.415 141.935 99.5733 142.591 98.8283L143.839 98.5662L164.556 94.2668C164.969 94.1892 165.396 94.2763 165.746 94.5095C166.096 94.7427 166.341 95.1035 166.428 95.5148L168.631 106.123C168.721 106.534 168.647 106.964 168.424 107.32C168.201 107.677 167.847 107.933 167.439 108.032Z" fill="#407BFF"/>
<path opacity="0.3" d="M166.241 94.9532L154.584 106.809L152.088 105.798L142.379 101.861L141.012 101.306C141.411 100.396 141.948 99.5546 142.604 98.8095L143.852 98.5475L164.568 94.2481C164.886 94.1847 165.215 94.2181 165.513 94.3438C165.811 94.4695 166.064 94.6818 166.241 94.9532Z" fill="black"/>
<path d="M166.241 94.9532L152.088 105.817L151.165 106.528L142.273 102.117L140.95 101.493C140.965 101.445 140.986 101.399 141.012 101.355C141.411 100.446 141.948 99.6044 142.604 98.8594L143.852 98.5973L164.568 94.298C164.881 94.2295 165.206 94.2552 165.504 94.3719C165.802 94.4885 166.058 94.6908 166.241 94.9532Z" fill="#407BFF"/>
<path opacity="0.2" d="M166.241 94.9532L152.088 105.817L151.165 106.528L142.273 102.117L140.95 101.493C140.965 101.445 140.986 101.399 141.012 101.355C141.411 100.446 141.948 99.6044 142.604 98.8594L143.852 98.5973L164.568 94.298C164.881 94.2295 165.206 94.2552 165.504 94.3719C165.802 94.4885 166.058 94.6908 166.241 94.9532Z" fill="white"/>
<path d="M196.935 129.916L189.572 137.853C189.281 138.163 188.88 138.345 188.456 138.36C188.032 138.375 187.619 138.222 187.307 137.934L169.248 121.117C168.937 120.828 168.754 120.426 168.739 120.002C168.724 119.577 168.878 119.164 169.167 118.852L176.555 110.915C176.698 110.759 176.871 110.634 177.063 110.545C177.255 110.457 177.463 110.408 177.674 110.4C177.885 110.393 178.096 110.427 178.294 110.501C178.492 110.576 178.673 110.689 178.827 110.834L196.879 127.651C197.113 127.868 197.277 128.151 197.349 128.462C197.421 128.774 197.399 129.099 197.285 129.398C197.207 129.594 197.087 129.77 196.935 129.916Z" fill="#407BFF"/>
<path opacity="0.3" d="M197.26 129.429L180.836 126.752L177.023 110.528C177.314 110.394 177.639 110.349 177.955 110.399C178.272 110.449 178.566 110.592 178.802 110.809L196.854 127.626C197.099 127.848 197.27 128.14 197.343 128.463C197.415 128.786 197.386 129.124 197.26 129.429Z" fill="black"/>
<path d="M197.26 129.429L181.267 124.662L177.023 110.584C177.314 110.45 177.639 110.406 177.955 110.456C178.272 110.505 178.566 110.648 178.802 110.865L196.854 127.682C197.088 127.9 197.252 128.182 197.324 128.494C197.396 128.805 197.374 129.131 197.26 129.429Z" fill="#407BFF"/>
<path opacity="0.2" d="M197.26 129.429L181.267 124.662L177.023 110.584C177.314 110.45 177.639 110.406 177.955 110.456C178.272 110.505 178.566 110.648 178.802 110.865L196.854 127.682C197.088 127.9 197.252 128.182 197.324 128.494C197.396 128.805 197.374 129.131 197.26 129.429Z" fill="white"/>
<path d="M203.356 142.989L211.468 152.461C211.623 152.642 211.74 152.853 211.81 153.081C211.881 153.309 211.905 153.548 211.879 153.785C211.854 154.023 211.781 154.252 211.664 154.46C211.547 154.668 211.389 154.85 211.2 154.994L193.578 168.722C193.282 168.901 192.93 168.962 192.591 168.896C192.252 168.829 191.95 168.638 191.744 168.361L185.397 161.122C185.278 160.983 185.179 160.827 185.104 160.66C184.986 160.431 184.937 160.172 184.963 159.915C184.988 159.659 185.087 159.415 185.248 159.213L200.848 142.92C201.091 142.656 201.413 142.478 201.766 142.41C202.118 142.343 202.483 142.39 202.807 142.546C203.016 142.657 203.203 142.808 203.356 142.989Z" fill="#407BFF"/>
<path opacity="0.3" d="M202.807 142.564L198.932 159.799L185.129 160.679C185.011 160.45 184.962 160.191 184.988 159.934C185.013 159.677 185.112 159.433 185.273 159.231L200.873 142.939C201.114 142.68 201.432 142.505 201.779 142.438C202.127 142.371 202.486 142.415 202.807 142.564Z" fill="black"/>
<path d="M202.807 142.564L196.311 160.854L185.117 160.679C184.999 160.45 184.95 160.191 184.975 159.934C185.001 159.677 185.1 159.433 185.26 159.232L200.86 142.939C201.103 142.678 201.422 142.501 201.772 142.434C202.122 142.366 202.485 142.412 202.807 142.564Z" fill="#407BFF"/>
<path opacity="0.2" d="M202.807 142.564L196.311 160.854L185.117 160.679C184.999 160.45 184.95 160.191 184.975 159.934C185.001 159.677 185.1 159.433 185.26 159.232L200.86 142.939C201.103 142.678 201.422 142.501 201.772 142.434C202.122 142.366 202.485 142.412 202.807 142.564Z" fill="white"/>
</svg>
