<svg width="49" height="48" viewBox="0 0 49 48" fill="none" xmlns="http://www.w3.org/2000/svg">
<rect x="0.945312" width="48" height="48" rx="24" fill="#E3E9F9"/>
<path d="M19.9453 33.4821C18.5794 33.3772 17.2815 32.8434 16.237 31.957C15.1925 31.0705 14.4548 29.8767 14.1292 28.546C13.8036 27.2152 13.9068 25.8157 14.424 24.5471C14.9413 23.2785 15.8461 22.2058 17.0093 21.4821C17.2568 19.5522 18.1991 17.7786 19.6598 16.4933C21.1206 15.2079 22.9996 14.4989 24.9453 14.4989C26.891 14.4989 28.7701 15.2079 30.2308 16.4933C31.6915 17.7786 32.6338 19.5522 32.8813 21.4821C34.0445 22.2058 34.9494 23.2785 35.4666 24.5471C35.9838 25.8157 36.087 27.2152 35.7615 28.546C35.4359 29.8767 34.6982 31.0705 33.6537 31.957C32.6091 32.8434 31.3113 33.3772 29.9453 33.4821V33.5011H19.9453V33.4821ZM25.9453 24.5011V20.5011H23.9453V24.5011H20.9453L24.9453 29.5011L28.9453 24.5011H25.9453Z" fill="#434CE6"/>
</svg>
