<svg width="22" height="22" viewBox="0 0 22 22" fill="none" xmlns="http://www.w3.org/2000/svg">
<path d="M3.52003 4.93401L0.39303 1.80801L1.80803 0.393005L21.607 20.193L20.192 21.607L16.882 18.297C15.1232 19.4126 13.0828 20.0033 11 20C5.60803 20 1.12203 16.12 0.18103 11C0.61106 8.67072 1.78166 6.5429 3.52003 4.93401ZM13.757 15.172L12.293 13.708C11.7331 13.9759 11.1038 14.0635 10.492 13.9588C9.88012 13.854 9.31583 13.5621 8.8769 13.1231C8.43797 12.6842 8.146 12.1199 8.04125 11.5081C7.93649 10.8962 8.02411 10.267 8.29203 9.70701L6.82803 8.24301C6.19175 9.2045 5.9073 10.3563 6.02286 11.5035C6.13842 12.6507 6.64688 13.7226 7.46215 14.5379C8.27742 15.3532 9.34939 15.8616 10.4965 15.9772C11.6437 16.0927 12.7955 15.8083 13.757 15.172ZM6.97403 2.76001C8.22103 2.27001 9.58003 2.00001 11 2.00001C16.392 2.00001 20.878 5.88001 21.819 11C21.5126 12.6657 20.8239 14.2376 19.807 15.592L15.947 11.732C16.0617 10.9596 15.9939 10.1711 15.749 9.42966C15.5041 8.68821 15.0889 8.01442 14.5368 7.46227C13.9846 6.91013 13.3108 6.49498 12.5694 6.25008C11.8279 6.00518 11.0394 5.93735 10.267 6.05201L6.97403 2.76001Z" fill="#434CE6"/>
</svg>
