<svg width="87" height="31" viewBox="0 0 87 31" fill="none" xmlns="http://www.w3.org/2000/svg">
<rect width="86.1001" height="30.7684" rx="1" fill="#F2F6FF"/>
<path d="M5.17889 15.952C5.17889 13.1578 7.44408 10.8926 10.2383 10.8926H18.0858V17.864C18.0858 20.6583 15.8206 22.9235 13.0264 22.9235H5.17889V15.952Z" fill="#434CE6"/>
<path d="M3.88422 12.9042C3.88422 10.1099 6.1494 7.84473 8.94365 7.84473H16.7911V14.8162C16.7911 17.6104 14.526 19.8756 11.7317 19.8756H3.88422V12.9042Z" fill="#65FA4D"/>
<path d="M33.1722 9.9774L29.3035 20.8843H25.9786L22.1099 9.9774H24.9376L27.641 18.2119L30.36 9.9774H33.1722ZM41.6004 9.9774V20.8843H38.9436V9.9774H41.6004ZM54.5103 20.8843L50.8436 16.0679V20.8843H48.1868V9.9774H50.8436V14.7628L54.4793 9.9774H57.6022L53.3762 15.3221L57.7575 20.8843H54.5103ZM70.0047 20.8843L66.338 16.0679V20.8843H63.6812V9.9774H66.338V14.7628L69.9736 9.9774H73.0966L68.8705 15.3221L73.2519 20.8843H70.0047ZM81.8324 9.9774V20.8843H79.1756V9.9774H81.8324Z" fill="#434CE6"/>
</svg>
