<svg width="42" height="44" viewBox="0 0 42 44" fill="none" xmlns="http://www.w3.org/2000/svg">
<circle cx="21" cy="20" r="20" fill="#DAFAC7"/>
<g filter="url(#filter0_d_57_6298)">
<path d="M23.8837 30.9468L10.6485 24.7028C10.2734 24.5257 9.98397 24.207 9.84387 23.8165C9.70377 23.4261 9.72447 22.996 9.90144 22.6209L15.2372 11.3114L20.2823 9.60792L31.4625 14.883C31.8376 15.0599 32.127 15.3787 32.2671 15.769C32.4073 16.1594 32.3866 16.5894 32.2096 16.9646L25.9653 30.1996C25.8777 30.3854 25.7544 30.5521 25.6023 30.6902C25.4503 30.8283 25.2726 30.9351 25.0793 31.0045C24.886 31.0738 24.6809 31.1045 24.4757 31.0946C24.2706 31.0847 24.0694 31.0345 23.8837 30.9468Z" fill="#434CE6"/>
<path opacity="0.29" d="M20.2824 9.60781L15.2373 11.3113L18.6992 13.016L20.2824 9.60781Z" fill="#242A83"/>
<g opacity="0.88">
<path d="M27.144 23.1282C27.1298 23.1249 27.116 23.12 27.1029 23.1137L14.7321 17.2191C14.6799 17.1942 14.6396 17.1495 14.6203 17.095C14.6009 17.0404 14.604 16.9804 14.6289 16.9282C14.6538 16.8759 14.6984 16.8357 14.753 16.8163C14.8075 16.797 14.8675 16.8001 14.9198 16.825L27.2906 22.7196C27.3392 22.7429 27.3775 22.7833 27.398 22.8332C27.4186 22.883 27.42 22.9387 27.402 22.9895C27.3839 23.0403 27.3477 23.0826 27.3003 23.1083C27.2529 23.134 27.1977 23.1412 27.1453 23.1286L27.144 23.1282Z" fill="white"/>
<path d="M25.9459 25.7332C25.9316 25.7296 25.9178 25.7247 25.9045 25.7186L13.534 19.824C13.507 19.8124 13.4826 19.7955 13.4622 19.7742C13.4419 19.7529 13.4261 19.7278 13.4157 19.7003C13.4053 19.6727 13.4006 19.6434 13.4019 19.614C13.4031 19.5846 13.4103 19.5558 13.4229 19.5292C13.4355 19.5027 13.4534 19.4789 13.4755 19.4594C13.4975 19.4399 13.5232 19.4251 13.5511 19.4158C13.5791 19.4065 13.6086 19.4029 13.6379 19.4053C13.6672 19.4077 13.6957 19.4159 13.7218 19.4296L26.0922 25.3241C26.1413 25.3472 26.18 25.3876 26.2009 25.4377C26.2218 25.4877 26.2233 25.5437 26.2052 25.5947C26.187 25.6458 26.1505 25.6883 26.1028 25.714C26.055 25.7396 25.9995 25.7466 25.9469 25.7335L25.9459 25.7332Z" fill="white"/>
<path d="M18.0118 24.7977C17.9977 24.7943 17.9839 24.7894 17.9708 24.7831L12.4836 22.1685C12.4566 22.1569 12.4322 22.14 12.4118 22.1187C12.3915 22.0974 12.3757 22.0723 12.3653 22.0447C12.3549 22.0172 12.3502 21.9879 12.3515 21.9585C12.3527 21.9291 12.3598 21.9003 12.3725 21.8737C12.3851 21.8471 12.403 21.8234 12.425 21.8039C12.4471 21.7844 12.4728 21.7696 12.5007 21.7603C12.5286 21.751 12.5581 21.7474 12.5875 21.7498C12.6168 21.7522 12.6453 21.7604 12.6714 21.7741L18.1584 24.389C18.2071 24.4123 18.2453 24.4528 18.2659 24.5026C18.2865 24.5524 18.2879 24.6081 18.2698 24.6589C18.2518 24.7097 18.2156 24.752 18.1682 24.7777C18.1208 24.8034 18.0656 24.8106 18.0131 24.798L18.0118 24.7977Z" fill="white"/>
</g>
<path d="M27.8005 20.9262C27.749 20.9123 27.6989 20.8938 27.6507 20.871L24.9719 19.6029C24.8663 19.5529 24.7715 19.4825 24.6932 19.3958C24.6148 19.309 24.5543 19.2077 24.5152 19.0975C24.4762 18.9873 24.4593 18.8705 24.4655 18.7538C24.4717 18.637 24.5009 18.5227 24.5515 18.4173L25.826 15.5536C25.9265 15.3427 26.1057 15.1798 26.3252 15.1C26.5446 15.0201 26.7866 15.0296 26.9991 15.1265L29.6947 16.3664C29.8017 16.4154 29.8979 16.4851 29.9776 16.5716C30.0574 16.6582 30.1191 16.7597 30.1593 16.8703C30.1994 16.9809 30.2171 17.0984 30.2113 17.2159C30.2056 17.3334 30.1765 17.4487 30.1258 17.5548L28.8338 20.4492C28.7441 20.6366 28.5918 20.7868 28.4031 20.8739C28.2144 20.961 28.0013 20.9795 27.8005 20.9262ZM26.7696 15.4088C26.6473 15.3764 26.5174 15.3875 26.4024 15.4403C26.2873 15.493 26.1942 15.5842 26.1389 15.6981L24.8644 18.5618C24.8327 18.6264 24.8143 18.6966 24.81 18.7684C24.8057 18.8402 24.8158 18.9121 24.8395 18.98C24.8633 19.0479 24.9002 19.1104 24.9483 19.1639C24.9964 19.2174 25.0546 19.2608 25.1196 19.2916L27.7984 20.5597C27.9281 20.6202 28.0764 20.6272 28.2113 20.5794C28.3462 20.5315 28.457 20.4327 28.5197 20.304L29.813 17.4075C29.8442 17.3425 29.8621 17.272 29.8658 17.2001C29.8694 17.1282 29.8587 17.0562 29.8343 16.9884C29.8099 16.9207 29.7722 16.8584 29.7235 16.8054C29.6748 16.7523 29.616 16.7095 29.5505 16.6793L26.8549 15.4395C26.8274 15.4269 26.7989 15.4166 26.7696 15.4088Z" fill="white"/>
</g>
<defs>
<filter id="filter0_d_57_6298" x="0.396178" y="3.02409" width="41.3187" height="40.2001" filterUnits="userSpaceOnUse" color-interpolation-filters="sRGB">
<feFlood flood-opacity="0" result="BackgroundImageFix"/>
<feColorMatrix in="SourceAlpha" type="matrix" values="0 0 0 0 0 0 0 0 0 0 0 0 0 0 0 0 0 0 127 0" result="hardAlpha"/>
<feOffset dy="2.77208"/>
<feGaussianBlur stdDeviation="4.67789"/>
<feComposite in2="hardAlpha" operator="out"/>
<feColorMatrix type="matrix" values="0 0 0 0 0.183333 0 0 0 0 0.175694 0 0 0 0 0.175694 0 0 0 0.25 0"/>
<feBlend mode="normal" in2="BackgroundImageFix" result="effect1_dropShadow_57_6298"/>
<feBlend mode="normal" in="SourceGraphic" in2="effect1_dropShadow_57_6298" result="shape"/>
</filter>
</defs>
</svg>
