<svg width="49" height="48" viewBox="0 0 49 48" fill="none" xmlns="http://www.w3.org/2000/svg">
<rect x="0.615601" width="48" height="48" rx="24" fill="white"/>
<path d="M30.6156 15C29.5156 15 28.6156 15.9 28.6156 17C28.6156 18.1 29.5156 19 30.6156 19C31.7156 19 32.6156 18.1 32.6156 17C32.6156 15.9 31.7156 15 30.6156 15ZM30.6156 29C29.5156 29 28.6156 29.9 28.6156 31C28.6156 32.1 29.5156 33 30.6156 33C31.7156 33 32.6156 32.1 32.6156 31C32.6156 29.9 31.7156 29 30.6156 29ZM30.6156 22C29.5156 22 28.6156 22.9 28.6156 24C28.6156 25.1 29.5156 26 30.6156 26C31.7156 26 32.6156 25.1 32.6156 24C32.6156 22.9 31.7156 22 30.6156 22Z" fill="#222121"/>
</svg>
