<svg width="49" height="48" viewBox="0 0 49 48" fill="none" xmlns="http://www.w3.org/2000/svg">
<rect x="0.0331421" y="48" width="48" height="48" rx="24" transform="rotate(-90 0.0331421 48)" fill="white"/>
<path d="M15.0331 24C15.0331 25.1 15.9331 26 17.0331 26C18.1331 26 19.0331 25.1 19.0331 24C19.0331 22.9 18.1331 22 17.0331 22C15.9331 22 15.0331 22.9 15.0331 24ZM29.0331 24C29.0331 25.1 29.9331 26 31.0331 26C32.1331 26 33.0331 25.1 33.0331 24C33.0331 22.9 32.1331 22 31.0331 22C29.9331 22 29.0331 22.9 29.0331 24ZM22.0331 24C22.0331 25.1 22.9331 26 24.0331 26C25.1331 26 26.0331 25.1 26.0331 24C26.0331 22.9 25.1331 22 24.0331 22C22.9331 22 22.0331 22.9 22.0331 24Z" fill="#222121"/>
</svg>
