<svg width="22" height="18" viewBox="0 0 22 18" fill="none" xmlns="http://www.w3.org/2000/svg">
<path d="M0.18103 9C1.12103 3.88 5.60803 0 11 0C16.392 0 20.878 3.88 21.819 9C20.879 14.12 16.392 18 11 18C5.60803 18 1.12203 14.12 0.18103 9ZM11 14C12.3261 14 13.5979 13.4732 14.5356 12.5355C15.4732 11.5979 16 10.3261 16 9C16 7.67392 15.4732 6.40215 14.5356 5.46447C13.5979 4.52678 12.3261 4 11 4C9.67395 4 8.40218 4.52678 7.4645 5.46447C6.52681 6.40215 6.00003 7.67392 6.00003 9C6.00003 10.3261 6.52681 11.5979 7.4645 12.5355C8.40218 13.4732 9.67395 14 11 14ZM11 12C10.2044 12 9.44132 11.6839 8.87871 11.1213C8.3161 10.5587 8.00003 9.79565 8.00003 9C8.00003 8.20435 8.3161 7.44129 8.87871 6.87868C9.44132 6.31607 10.2044 6 11 6C11.7957 6 12.5587 6.31607 13.1214 6.87868C13.684 7.44129 14 8.20435 14 9C14 9.79565 13.684 10.5587 13.1214 11.1213C12.5587 11.6839 11.7957 12 11 12Z" fill="#515050"/>
</svg>
