<svg width="184" height="178" viewBox="0 0 184 178" fill="none" xmlns="http://www.w3.org/2000/svg">
<path d="M160.952 146.322L97.3208 134.808C95.5172 134.481 93.9172 133.452 92.8727 131.945C91.8283 130.439 91.4248 128.58 91.751 126.776L101.591 72.403L121.176 59.3623L174.928 69.0911C176.732 69.4173 178.332 70.4467 179.376 71.9526C180.421 73.4585 180.824 75.3177 180.498 77.1211L168.982 140.752C168.821 141.646 168.485 142.498 167.994 143.261C167.503 144.025 166.867 144.684 166.121 145.201C165.375 145.718 164.535 146.083 163.648 146.276C162.761 146.468 161.845 146.484 160.952 146.322Z" fill="#0CBC8B"/>
<path opacity="0.29" d="M121.176 59.3623L101.591 72.403L118.317 75.7195L121.176 59.3623Z" fill="#0A6D52"/>
<g opacity="0.88">
<path d="M165.926 109.222C165.862 109.223 165.797 109.218 165.734 109.206L106.192 98.195C105.94 98.1485 105.717 98.0041 105.572 97.7934C105.427 97.5827 105.372 97.323 105.418 97.0714C105.465 96.8199 105.609 96.5972 105.82 96.4522C106.031 96.3072 106.29 96.2518 106.542 96.2983L166.084 107.31C166.318 107.354 166.528 107.482 166.673 107.672C166.818 107.861 166.887 108.097 166.868 108.334C166.849 108.572 166.743 108.794 166.57 108.958C166.398 109.121 166.17 109.216 165.932 109.222H165.926Z" fill="white"/>
<path d="M163.792 121.711C163.727 121.712 163.662 121.707 163.598 121.696L104.057 110.684C103.929 110.666 103.805 110.621 103.694 110.554C103.583 110.486 103.487 110.397 103.411 110.292C103.335 110.186 103.282 110.066 103.253 109.939C103.225 109.812 103.222 109.681 103.246 109.553C103.27 109.425 103.319 109.304 103.391 109.195C103.462 109.087 103.555 108.994 103.664 108.923C103.772 108.851 103.894 108.802 104.022 108.778C104.15 108.755 104.281 108.758 104.408 108.786L163.949 119.798C164.184 119.84 164.396 119.968 164.542 120.158C164.689 120.348 164.759 120.585 164.74 120.824C164.721 121.062 164.614 121.285 164.439 121.449C164.265 121.614 164.036 121.707 163.796 121.711H163.792Z" fill="white"/>
<path d="M128.858 126.791C128.793 126.793 128.729 126.787 128.666 126.776L102.255 121.891C102.127 121.873 102.003 121.828 101.892 121.761C101.781 121.693 101.685 121.604 101.609 121.499C101.533 121.393 101.479 121.273 101.451 121.146C101.423 121.019 101.42 120.888 101.444 120.76C101.467 120.632 101.517 120.511 101.588 120.402C101.66 120.294 101.753 120.201 101.861 120.13C101.97 120.058 102.092 120.009 102.22 119.986C102.347 119.962 102.479 119.965 102.606 119.993L129.016 124.879C129.25 124.923 129.46 125.052 129.605 125.241C129.749 125.43 129.819 125.666 129.8 125.903C129.781 126.141 129.675 126.363 129.502 126.527C129.329 126.691 129.102 126.785 128.864 126.791H128.858Z" fill="white"/>
</g>
<path d="M166.21 99.0722C165.974 99.0719 165.739 99.0505 165.507 99.0082L152.623 96.6591C152.115 96.5665 151.63 96.3745 151.197 96.094C150.763 95.8134 150.389 95.4499 150.096 95.0244C149.803 94.5988 149.598 94.1195 149.491 93.6142C149.384 93.1088 149.378 92.5873 149.473 92.0796L151.638 78.399C151.825 77.3844 152.404 76.484 153.249 75.8922C154.095 75.3003 155.139 75.0642 156.156 75.2348L169.08 77.4439C169.592 77.5305 170.083 77.7183 170.522 77.9964C170.961 78.2744 171.341 78.6371 171.639 79.0634C171.937 79.4896 172.147 79.9708 172.256 80.479C172.366 80.9872 172.374 81.5121 172.279 82.0233L170.075 95.8547C169.906 96.7572 169.428 97.5726 168.722 98.16C168.016 98.7474 167.128 99.0701 166.21 99.0722ZM155.5 76.7019C154.94 76.7035 154.399 76.8995 153.968 77.2564C153.537 77.6132 153.244 78.1087 153.138 78.658L150.974 92.3386C150.913 92.6504 150.914 92.9713 150.978 93.2826C151.042 93.5939 151.167 93.8894 151.346 94.152C151.525 94.4146 151.754 94.6391 152.021 94.8124C152.287 94.9856 152.585 95.1043 152.898 95.1615L165.782 97.5107C166.404 97.6201 167.045 97.4806 167.567 97.1222C168.088 96.7637 168.447 96.2151 168.568 95.5942L170.775 81.7522C170.834 81.4393 170.83 81.1179 170.763 80.8067C170.697 80.4954 170.569 80.2006 170.387 79.9393C170.205 79.678 169.973 79.4554 169.705 79.2846C169.436 79.1138 169.136 78.9982 168.822 78.9444L155.899 76.7355C155.767 76.713 155.634 76.7018 155.5 76.7019Z" fill="white"/>
<g filter="url(#filter0_d_57_6024)">
<path d="M104.371 123.504L45.8876 95.9134C44.23 95.1311 42.951 93.7224 42.332 91.9972C41.7129 90.272 41.8044 88.3716 42.5864 86.7139L66.1639 36.74L88.4571 29.2128L137.859 52.522C139.517 53.3039 140.796 54.7123 141.415 56.4373C142.034 58.1622 141.943 60.0625 141.161 61.72L113.569 120.203C113.182 121.024 112.637 121.76 111.965 122.37C111.293 122.981 110.508 123.452 109.654 123.759C108.799 124.066 107.893 124.201 106.987 124.157C106.08 124.113 105.191 123.892 104.371 123.504Z" fill="#434CE6"/>
<path opacity="0.29" d="M88.4571 29.2126L66.1639 36.7399L81.4615 44.2724L88.4571 29.2126Z" fill="#242A83"/>
<g opacity="0.88">
<path d="M118.777 88.9552C118.715 88.9402 118.654 88.9186 118.596 88.8908L63.9323 62.8439C63.7014 62.7339 63.5236 62.5367 63.4381 62.2956C63.3526 62.0546 63.3663 61.7894 63.4763 61.5585C63.5863 61.3275 63.7835 61.1498 64.0245 61.0643C64.2656 60.9787 64.5307 60.9925 64.7617 61.1024L119.425 87.1494C119.64 87.2523 119.809 87.4311 119.9 87.6513C119.991 87.8715 119.997 88.1175 119.917 88.342C119.838 88.5664 119.678 88.7534 119.468 88.8669C119.259 88.9804 119.015 89.0124 118.783 88.9568L118.777 88.9552Z" fill="white"/>
<path d="M113.483 100.467C113.42 100.451 113.359 100.429 113.3 100.402L58.6383 74.3556C58.5188 74.3043 58.411 74.2294 58.3212 74.1354C58.2314 74.0415 58.1614 73.9304 58.1156 73.8087C58.0697 73.6871 58.0489 73.5575 58.0544 73.4276C58.0598 73.2977 58.0914 73.1703 58.1473 73.0529C58.2032 72.9355 58.2822 72.8307 58.3796 72.7446C58.4769 72.6585 58.5907 72.5929 58.714 72.5518C58.8373 72.5107 58.9677 72.4949 59.0972 72.5054C59.2268 72.5158 59.3529 72.5524 59.468 72.6128L114.13 98.6593C114.347 98.7611 114.518 98.9398 114.61 99.1609C114.703 99.3819 114.709 99.6293 114.629 99.855C114.549 100.081 114.388 100.268 114.177 100.382C113.966 100.495 113.72 100.526 113.488 100.468L113.483 100.467Z" fill="white"/>
<path d="M78.4246 96.3327C78.362 96.3176 78.3012 96.296 78.2431 96.2682L53.9967 84.715C53.8772 84.6637 53.7694 84.5888 53.6796 84.4949C53.5897 84.4009 53.5198 84.2897 53.474 84.1681C53.4281 84.0465 53.4073 83.9168 53.4128 83.787C53.4182 83.6571 53.4498 83.5296 53.5057 83.4123C53.5616 83.2949 53.6406 83.19 53.738 83.1039C53.8353 83.0178 53.9491 82.9523 54.0724 82.9112C54.1957 82.8701 54.3261 82.8543 54.4556 82.8647C54.5852 82.8752 54.7113 82.9118 54.8264 82.9721L79.0725 94.5269C79.2873 94.6298 79.4564 94.8085 79.5473 95.0287C79.6382 95.2489 79.6443 95.4949 79.5646 95.7194C79.4849 95.9438 79.3249 96.1309 79.1155 96.2444C78.9061 96.3579 78.6621 96.3899 78.4305 96.3342L78.4246 96.3327Z" fill="white"/>
</g>
<path d="M121.678 79.2255C121.451 79.1642 121.229 79.0827 121.016 78.9819L109.179 73.3782C108.713 73.1573 108.294 72.8463 107.948 72.463C107.601 72.0798 107.334 71.6319 107.161 71.1451C106.989 70.6582 106.914 70.142 106.941 69.6262C106.969 69.1104 107.098 68.6051 107.322 68.1394L112.953 55.4852C113.397 54.5537 114.189 53.8339 115.159 53.4809C116.129 53.1279 117.198 53.1701 118.137 53.5984L130.048 59.0769C130.521 59.2933 130.946 59.6016 131.298 59.9839C131.651 60.3662 131.924 60.8148 132.101 61.3036C132.278 61.7923 132.356 62.3115 132.331 62.8308C132.306 63.3501 132.177 63.8592 131.953 64.3284L126.244 77.1179C125.848 77.9461 125.175 78.6098 124.341 78.9946C123.507 79.3793 122.565 79.461 121.678 79.2255ZM117.123 54.8455C116.582 54.7023 116.009 54.7514 115.5 54.9846C114.992 55.2178 114.58 55.6206 114.336 56.1238L108.704 68.7779C108.564 69.0633 108.483 69.3737 108.464 69.6909C108.445 70.0081 108.489 70.3259 108.594 70.6259C108.699 70.9259 108.863 71.202 109.075 71.4384C109.288 71.6747 109.545 71.8665 109.832 72.0026L121.669 77.6063C122.242 77.8733 122.897 77.9044 123.493 77.6931C124.09 77.4817 124.579 77.0448 124.856 76.4763L130.571 63.6773C130.709 63.3903 130.788 63.0788 130.804 62.7609C130.82 62.443 130.773 62.1251 130.665 61.8256C130.557 61.5262 130.391 61.2512 130.175 61.0167C129.96 60.7822 129.7 60.5928 129.411 60.4597L117.5 54.9812C117.378 54.9254 117.252 54.88 117.123 54.8455Z" fill="white"/>
</g>
<defs>
<filter id="filter0_d_57_6024" x="0.584843" y="0.121119" width="182.577" height="177.634" filterUnits="userSpaceOnUse" color-interpolation-filters="sRGB">
<feFlood flood-opacity="0" result="BackgroundImageFix"/>
<feColorMatrix in="SourceAlpha" type="matrix" values="0 0 0 0 0 0 0 0 0 0 0 0 0 0 0 0 0 0 127 0" result="hardAlpha"/>
<feOffset dy="12.2492"/>
<feGaussianBlur stdDeviation="20.6705"/>
<feComposite in2="hardAlpha" operator="out"/>
<feColorMatrix type="matrix" values="0 0 0 0 0.183333 0 0 0 0 0.175694 0 0 0 0 0.175694 0 0 0 0.25 0"/>
<feBlend mode="normal" in2="BackgroundImageFix" result="effect1_dropShadow_57_6024"/>
<feBlend mode="normal" in="SourceGraphic" in2="effect1_dropShadow_57_6024" result="shape"/>
</filter>
</defs>
</svg>
